<!-- icon666.com - MILLIONS vector ICONS FREE --><svg version="1.1" id="Layer_1" xmlns="http://www.w3.org/2000/svg" xmlns:xlink="http://www.w3.org/1999/xlink" x="0px" y="0px" viewBox="0 0 512 512" style="enable-background:new 0 0 512 512;" xml:space="preserve"><polygon style="fill:#00DDC2;" points="308.245,436.245 203.755,436.245 219.429,363.102 292.571,363.102 "></polygon><g><rect x="177.633" y="436.245" style="fill:#FFFFFF;" width="156.735" height="26.122"></rect><rect x="7.837" y="49.633" style="fill:#FFFFFF;" width="496.327" height="250.775"></rect></g><rect x="7.837" y="300.408" style="fill:#00DDC2;" width="496.327" height="62.694"></rect><circle style="fill:#FFFFFF;" cx="256" cy="331.755" r="13.061"></circle><g><rect x="172.408" y="159.347" style="fill:#FF5252;" width="31.347" height="31.347"></rect><rect x="240.327" y="91.429" style="fill:#FF5252;" width="31.347" height="31.347"></rect><rect x="240.327" y="227.265" style="fill:#FF5252;" width="31.347" height="31.347"></rect><rect x="308.245" y="159.347" style="fill:#FF5252;" width="31.347" height="31.347"></rect></g><rect x="433.633" y="128" style="fill:#00DDC2;" width="31.347" height="62.694"></rect><path d="M169.796,470.204h172.408v-41.796H169.796V470.204z M185.469,444.082h141.061v10.449H185.469V444.082z"></path><path d="M0,41.796v329.143h512V41.796H0z M15.673,355.265V57.469h480.653v235.106H28.735v15.673h467.592v47.016H15.673z"></path><path d="M256,310.857c-11.523,0-20.898,9.375-20.898,20.898c0,11.523,9.375,20.898,20.898,20.898 c11.523,0,20.898-9.375,20.898-20.898C276.898,320.232,267.523,310.857,256,310.857z M256,336.98c-2.881,0-5.224-2.344-5.224-5.224 s2.344-5.224,5.224-5.224s5.225,2.344,5.225,5.224S258.881,336.98,256,336.98z"></path><path d="M148.898,219.431c-12.964,0-23.51,10.547-23.51,23.51s10.546,23.51,23.51,23.51c10.216,0,18.927-6.553,22.162-15.673h61.43 v15.673h47.02v-15.673h61.43c3.235,9.121,11.945,15.673,22.162,15.673c12.964,0,23.51-10.547,23.51-23.51s-10.546-23.51-23.51-23.51 c-10.216,0-18.927,6.553-22.162,15.673h-38.895c11.991-9.23,21.183-21.962,25.966-36.571h19.418v-47.02h-19.411 c-4.789-14.614-13.985-27.345-25.976-36.571h38.898c3.235,9.121,11.945,15.673,22.162,15.673c12.964,0,23.51-10.547,23.51-23.51 c0-12.964-10.546-23.51-23.51-23.51c-10.216,0-18.927,6.553-22.162,15.673h-61.43V83.594h-47.02v15.673h-61.43 c-3.235-9.121-11.946-15.673-22.162-15.673c-12.964,0-23.51,10.546-23.51,23.51c0,12.963,10.546,23.51,23.51,23.51 c10.216,0,18.927-6.553,22.162-15.673h38.898c-11.991,9.226-21.187,21.957-25.976,36.571h-19.411v47.02h19.419 c4.782,14.61,13.974,27.342,25.966,36.571H171.06C167.825,225.983,159.114,219.431,148.898,219.431z M148.898,250.778 c-4.322,0-7.837-3.516-7.837-7.837s3.515-7.837,7.837-7.837s7.837,3.516,7.837,7.837S153.22,250.778,148.898,250.778z M263.837,250.778h-15.673v-15.673h15.673V250.778z M363.102,235.104c4.322,0,7.837,3.516,7.837,7.837s-3.515,7.837-7.837,7.837 s-7.837-3.516-7.837-7.837S358.78,235.104,363.102,235.104z M331.755,182.859h-15.673v-15.673h15.673V182.859z M363.102,99.267 c4.322,0,7.837,3.516,7.837,7.837s-3.515,7.837-7.837,7.837s-7.837-3.516-7.837-7.837S358.78,99.267,363.102,99.267z M248.163,99.267h15.673v15.673h-15.673V99.267z M148.898,114.941c-4.322,0-7.837-3.516-7.837-7.837s3.515-7.837,7.837-7.837 s7.837,3.516,7.837,7.837S153.22,114.941,148.898,114.941z M180.245,167.186h15.673v15.673h-15.673V167.186z M200.713,198.533 h10.878v-47.02h-10.885c6.084-14.216,17.57-25.699,31.783-31.776v10.878h47.02v-10.878c14.212,6.077,25.698,17.561,31.783,31.776 h-10.885v47.02h10.878c-6.077,14.212-17.561,25.698-31.776,31.783v-10.885h-47.02v10.885 C218.274,224.231,206.791,212.744,200.713,198.533z"></path><rect x="39.184" y="214.204" width="15.673" height="15.673"></rect><rect x="70.531" y="214.204" width="15.673" height="15.673"></rect><rect x="39.184" y="182.857" width="15.673" height="15.673"></rect><rect x="70.531" y="182.857" width="15.673" height="15.673"></rect><rect x="39.184" y="151.51" width="15.673" height="15.673"></rect><rect x="70.531" y="151.51" width="15.673" height="15.673"></rect><rect x="39.184" y="120.163" width="15.673" height="15.673"></rect><rect x="70.531" y="120.163" width="15.673" height="15.673"></rect><rect x="425.796" y="214.204" width="47.02" height="15.673"></rect><rect x="425.796" y="240.327" width="47.02" height="15.673"></rect><path d="M472.816,120.163h-47.02v78.367h47.02V120.163z M457.143,182.857h-15.673v-47.02h15.673V182.857z"></path></svg>